<svg xmlns="http://www.w3.org/2000/svg" viewBox="0 0 1200 720"><defs><linearGradient id="b" x2="1" y2="1"><stop stop-color="#112f33"/><stop offset=".55" stop-color="#537d72"/><stop offset="1" stop-color="#d6b27b"/></linearGradient><linearGradient id="t" x2="0" y2="1"><stop stop-color="#fffefa"/><stop offset="1" stop-color="#c8dbd2"/></linearGradient></defs><rect width="1200" height="720" fill="url(#b)"/><path d="M0 560h1200" stroke="#d8bc8c" stroke-width="4" opacity=".7"/><circle cx="930" cy="125" r="180" fill="#f5d9a6" opacity=".25"/><rect x="820" y="115" width="220" height="290" rx="18" fill="#e9f1ec" opacity=".3" stroke="#f5e2bf" stroke-width="8"/><path d="M160 400c0-100 100-160 240-160s240 60 240 160v70c0 100-100 160-240 160s-240-60-240-160z" fill="url(#t)" stroke="#f8fbf7" stroke-width="7"/><ellipse cx="400" cy="402" rx="240" ry="75" fill="#fdfcf8" stroke="#f8fbf7" stroke-width="7"/><ellipse cx="400" cy="410" rx="180" ry="45" fill="#9dbeb3"/><circle cx="400" cy="407" r="12" fill="#b88952"/><path d="M710 500V210h110" fill="none" stroke="#f7e0b0" stroke-width="15" stroke-linecap="round"/><rect x="790" y="176" width="110" height="25" rx="12" fill="#f8fbf7"/><text x="72" y="104" font-family="sans-serif" font-size="25" letter-spacing="7" fill="#fff">ZENKRIO</text><text x="72" y="140" font-family="sans-serif" font-size="14" letter-spacing="4" fill="#e8d0a3">QUIET FORMS / LASTING RITUALS</text></svg>